<svg id="Layer_1" enable-background="new 0 0 512 512" height="512" viewBox="0 0 512 512" width="512" xmlns="http://www.w3.org/2000/svg"><g><path d="m374.99 96.4c23.36 32.99 31.06 76.35 16.89 117.48s-46.95 70.55-85.67 82.14c-23.36-32.99-31.06-76.35-16.89-117.48s46.95-70.54 85.67-82.14" fill="#46ceac"/></g><g><path d="m354 116.3-.62 3.71c-.84 5.09-3.25 9.78-6.89 13.44-9.65 9.71-17.31 21.69-22.07 35.51-10.24 29.73-4.68 61.07 12.21 84.91 25.15-7.53 46.83-25.47 58.4-50.61-.9 3.55-1.94 7.09-3.15 10.61-14.17 41.13-46.95 70.55-85.67 82.14-23.36-32.99-31.06-76.35-16.89-117.48 10.27-29.8 30.31-53.44 55.29-68.62 4.56-2.75 10.26 1.14 9.39 6.39z" fill="#2ba585"/></g><g><path d="m496 203.5c-6.81 39.84-32.02 75.95-71.13 95.02-39.11 19.06-83.08 16.69-118.66-2.49 6.81-39.84 32.02-75.95 71.13-95.02s83.08-16.69 118.66 2.49" fill="#46ceac"/></g><g><path d="m377.34 201.01c39.11-19.07 83.08-16.69 118.66 2.49-1.56 9.13-4.1 18.05-7.53 26.63.49-2.04.94-4.09 1.29-6.17-25.39-13.69-56.77-15.38-84.68-1.78-17.43 8.5-31 21.74-39.91 37.42-9.5 16.71.79 37.76 19.81 40.55 15.41 2.26 31.52.66 46.86-5.3-2.27 1.28-4.6 2.51-6.97 3.67-39.11 19.06-83.08 16.69-118.66-2.49 6.81-39.85 32.02-75.96 71.13-95.02z" fill="#2ba585"/></g><g><path d="m201.73 247.81c98.97 10.05 176.33 57.1 172.79 105.1s-86.64 78.77-185.61 68.73c-98.97-10.05-176.33-57.1-172.79-105.1s86.64-78.78 185.61-68.73" fill="#e4e8eb"/></g><g><path d="m188.9 421.64c98.97 10.05 182.07-20.72 185.61-68.73 2.47-33.46-34.37-66.45-90.42-86.77-.5 5.21-1.55 10.43-3.19 15.58l-10.2 31.96c-12.56 39.34-48.98 66.16-90.27 66.48l-11.54.09c-12.93.06-25.4 4.84-35.06 13.44l-15.36 13.66c21.42 6.76 45.22 11.73 70.43 14.29z" fill="#cad0d7"/></g><g><path d="m190.71 148.01c77.96-1.97 141.89 36.49 142.79 85.89s-61.55 91.05-139.5 93.02c-77.96 1.97-141.89-36.49-142.79-85.89s61.55-91.05 139.5-93.02" fill="#e4e8eb"/></g><g><path d="m271.88 309.99c37.68-16.99 62.2-45 61.63-76.09-.75-40.74-44.36-74.03-103.34-83.35 6.93 12.11 11.6 25.74 13.39 40.39l.19 1.53 1.77.97c31.43 17.15 46.27 54.18 35.38 88.29z" fill="#cad0d7"/></g><g><path d="m165.39 89.32c55.88-5.79 103.34 18.23 106.01 53.64s-40.47 68.82-96.35 74.61-103.34-18.23-106.01-53.64 40.47-68.82 96.35-74.61" fill="#e4e8eb"/></g><g><path d="m243.56 190.94.19 1.53c18.31-13.66 29.03-31.31 27.66-49.5-2.67-35.41-50.13-59.43-106.01-53.64-11.75 1.22-22.93 3.66-33.25 7.08 56.1-2.36 104.6 38.79 111.41 94.53z" fill="#cad0d7"/></g><g><path d="m478.4 222.73c-6.64 20.02-21.91 38.71-41.22 47.62-.35.16-.69-.32-.4-.59 1.87-1.91 3.79-3.71 5.71-5.55 9.37-9.02 18.36-18.46 26.12-28.91 3.16-4.16 6.11-8.49 9.15-12.88.21-.33.78-.08.64.31z" fill="#fff"/></g><g><path d="m74.59 246.01c-3.49-2.51-4.86-7.86-1.65-11.17.2-.19.51-.2.71-.02 3.18 2.97 3.21 7.2 1.63 11-.11.25-.45.35-.69.19z" fill="#fff"/></g><g><path d="m148.57 297.76c-28.45-2.23-63.5-17.34-72.28-46.82-.05-.19.06-.39.25-.44.16-.04.33.03.41.17 11.17 19.18 30.57 31.35 50.74 39.32 6.82 2.71 13.85 4.94 21.01 7.07.19.05.3.25.25.44-.05.17-.21.27-.38.26z" fill="#fff"/></g><path d="m497.76 203.8c.03-.5-.12-.91-.36-1.22-.12-.24-.3-.46-.55-.65-28.26-19.38-60.11-25.26-90.11-20.59.83-30.37-8.75-61.03-30.3-85.97-.33-.38-.73-.56-1.12-.61-.25-.08-.54-.12-.85-.07-41.13 7.67-71.8 33.36-88.84 66.26-1.82-.85-3.67-1.65-5.53-2.42 2.4-11.36 1.26-23.24-4.47-34.24-20.08-37.01-72.79-44.47-110.42-36.74-28.69-.19-58.06 7.9-80.77 25.99-14.97 11.87-26.67 29.86-26.15 49.81.1 8.69 2.47 16.72 6.41 23.93-14.14 14.11-23.6 31.93-24.21 53.5-.12 7.89 1.29 15.74 3.88 23.19-6.57 3.72-12.78 8.04-18.44 13.12-16.25 14.79-24.56 35.5-18.91 57.29 9.53 34.61 42.61 56.41 72.56 71.04 71.22 33.4 173.4 42.02 246.7 12.21 14.75-6.22 29.09-14.49 40.25-26.14 20.88-21.76 22-46.83 10.2-68.73 61.79-5.46 116.25-53.45 121.03-118.96zm-123.54-105.11c9.57 17.41 15.36 36.34 16.85 55.37.83 10.36.35 20.84-1.37 31.12-18.54 5.49-35.91 15.03-50.7 27.86-.26-.71-.54-1.41-.82-2.11l29.88-86.71c.45-1.31-.24-2.73-1.55-3.18-1.31-.46-2.73.25-3.18 1.55l-15.15 43.99c-1.22-9.31-5.45-17.93-12.19-24.63-.98-.98-2.56-.97-3.54.01-.97.98-.97 2.56.01 3.54 6.9 6.87 10.83 16.01 11.08 25.75l.21 8.2-8.59 24.94c-3.16-6.01-7.25-11.77-12.29-17.15-5.89-6.22-12.45-11.65-19.5-16.36 12.89-31.92 38.72-57.83 70.85-72.19zm-9.88 243.75-48.31-48.31c1.21-1.17 2.4-2.37 3.57-3.59 19.74 12.48 41.16 30.92 44.74 51.9zm-1.79 18.64c-.21.54-.44 1.07-.68 1.6l-58.08-58.08c2.95-2.23 5.81-4.58 8.58-7.06l52.46 52.46c-.16 3.64-.88 7.34-2.28 11.08zm-10.1 14.89-62.04-62.04.14-.45c3.12-1.85 6.17-3.81 9.14-5.89l59.72 59.72c-1.94 3.12-4.31 6.01-6.96 8.66zm-12.43 9.87c-.08.05-.17.1-.25.15l-55.17-55.17c1.19-2.89 2.28-5.85 3.25-8.87l.85-2.66 60.08 60.08c-2.78 2.38-5.75 4.53-8.76 6.47zm-15.12 7.98-47.9-47.9c1.97-3.28 3.78-6.69 5.43-10.2l52.87 52.88c-3.36 1.87-6.83 3.61-10.4 5.22zm-16.38 6.32-40.91-40.91c2.35-2.87 4.59-5.86 6.66-8.97l45.7 45.7c-3.74 1.52-7.56 2.91-11.45 4.18zm-17.83 4.87-34.11-34.11c2.71-2.49 5.31-5.11 7.77-7.86l38.77 38.77c-4.08 1.19-8.23 2.26-12.43 3.2zm-19.24 3.46-27.53-27.53c3.08-2.09 6.04-4.35 8.89-6.74l32.04 32.04c-4.43.86-8.9 1.61-13.4 2.23zm-20.63 2.08-21.31-21.31c3.46-1.67 6.84-3.52 10.1-5.53l25.55 25.55c-4.76.55-9.55.98-14.34 1.29zm-22 .7-15.64-15.64c3.91-1.18 7.75-2.56 11.48-4.15l19.46 19.46c-5.13.22-10.23.33-15.3.33zm-23.44-.74-10.92-10.92c4.47-.56 8.88-1.38 13.19-2.44l14.03 14.03c-5.52-.11-10.96-.34-16.3-.67zm-15.22-1.21c-3.26-.36-6.57-.77-9.92-1.23l-7.54-7.54 8.53-.06c2.27-.02 4.52-.12 6.76-.27l9.78 9.78c-2.57-.21-5.11-.43-7.61-.68zm-24.45-8.68 6.24 6.24c-6.8-1.07-13.72-2.33-20.68-3.81 4.68-1.4 9.52-2.23 14.44-2.43zm137.49-210.17c16.65 16.1 25.84 37.74 17.42 60.26-4.02 10.53-10.74 19.39-18.96 26.88 7.86-34.84-6.1-71.12-35.01-91.77 1.23-1.51 2.42-3.05 3.55-4.64 2.21-3.21 4.13-6.57 5.72-10.04 9.92 5.22 19.24 11.57 27.28 19.31zm-216.61-52.97c11.32-17.1 29.28-28.53 48.12-36.58 9.83-4.17 20.19-7.36 30.88-9.81 16.3-.06 32.29 1.83 47.72 6.55 18.31 5.84 38.01 16.14 45.92 34.42 5.28 12.16 1.78 25.73-6.14 35.97l-2.25-7.65c-7.93-26.94-26.82-49.72-51.84-62.51-1.23-.63-2.74-.14-3.36 1.09-.63 1.23-.14 2.74 1.09 3.36 23.8 12.17 41.78 33.85 49.32 59.47l3.18 10.81c-11.87 12.86-28.96 21.52-45.63 26.68-28.59 8.65-60.81 9.52-88.94-.87-27.27-10.13-45.97-32.82-28.07-60.93zm-12.33 66.95c.59-.76 1.2-1.5 1.82-2.23 8.37 8.31 18.85 14.78 29.51 18.97 48.99 19.96 121.04 8.98 157.79-31.55 29.39 20.75 42.59 58.54 31.61 93.51-5.72 4.36-11.92 8.19-18.31 11.56-31.93 16.47-69 21.83-104.62 19.19-37.99-2.96-88.24-18.7-105.76-55.31-8.43-18.26-4.04-38.38 7.96-54.14zm-31.05 147.88c-16.84-17.32-23.46-37.91-6.64-57.92l1.95-2.15.97-1.08c.51-.52 2.75-2.59 3.2-3.08 2.28-1.92 4.63-3.97 7.11-5.68.89-.61 1.78-1.21 2.69-1.79 2.08 3.26 4.37 6.37 6.86 9.26 33.53 38.13 86.31 50.35 134.96 49.45 30.51-1.13 62.49-7.75 89.85-22.26l-1.08 3.37c-14.21 44.53-55.16 74.68-101.9 75.04l-13.32.1c-.16 0-.32.01-.48.01-.58-.21-1.22-.2-1.8.04-8.05.33-15.92 2.17-23.23 5.41-36.87-8.85-73.9-24.05-99.14-48.72zm350.31-54.23c-11.7 2.23-23.71 2.65-35.53 1.37-.41-.37-.81-.74-1.23-1.11-6.13-5.31-12.77-10.14-19.78-14.54l44.73-21.8 8.17-.79c9.68-.94 19.24 1.85 26.9 7.87.46.36 1 .53 1.54.53.74 0 1.47-.33 1.97-.96.85-1.09.66-2.66-.42-3.51-7.47-5.87-16.55-9.02-25.93-9.1l77.49-37.78c1.24-.6 1.76-2.1 1.15-3.34-.6-1.24-2.1-1.75-3.34-1.15l-41.82 20.39c5.72-7.45 8.82-16.54 8.8-26.04 0-1.38-1.12-2.49-2.5-2.49 0 0 0 0-.01 0-1.38 0-2.5 1.12-2.49 2.51.02 9.73-3.66 18.98-10.37 26.04l-5.66 5.95-83.3 40.61c-.93-.54-1.85-1.09-2.79-1.61 7.78-11.08 12.36-23.15 13.67-35.32 9.16-11.73 20.39-21.85 33.13-29.61 35.01-21.69 79.07-24.46 117.93-9.6-5.54 19.07-14.83 36.56-27.24 51.06-18.57 21.79-44.86 37.3-73.07 42.42z"/></svg>